<?xml version="1.0" encoding="utf-8" standalone="no"?>
<!DOCTYPE svg PUBLIC "-//W3C//DTD SVG 1.1//EN"
  "http://www.w3.org/Graphics/SVG/1.1/DTD/svg11.dtd">
<svg xmlns:xlink="http://www.w3.org/1999/xlink" width="482.503307pt" height="345.6pt" viewBox="0 0 482.503307 345.6" xmlns="http://www.w3.org/2000/svg" version="1.1">
 <metadata>
  <rdf:RDF xmlns:dc="http://purl.org/dc/elements/1.1/" xmlns:cc="http://creativecommons.org/ns#" xmlns:rdf="http://www.w3.org/1999/02/22-rdf-syntax-ns#">
   <cc:Work>
    <dc:type rdf:resource="http://purl.org/dc/dcmitype/StillImage"/>
    <dc:date>2025-07-28T23:00:41.446687</dc:date>
    <dc:format>image/svg+xml</dc:format>
    <dc:creator>
     <cc:Agent>
      <dc:title>Matplotlib v3.7.1, https://matplotlib.org/</dc:title>
     </cc:Agent>
    </dc:creator>
   </cc:Work>
  </rdf:RDF>
 </metadata>
 <defs>
  <style type="text/css">*{stroke-linejoin: round; stroke-linecap: butt}</style>
 </defs>
 <g id="figure_1">
  <g id="patch_1">
   <path d="M 0 345.6 
L 482.503307 345.6 
L 482.503307 0 
L 0 0 
z
" style="fill: #ffffff"/>
  </g>
  <g id="axes_1">
   <g id="patch_2">
    <path d="M 0 345.6 
L 482.503307 345.6 
L 482.503307 0 
L 0 0 
z
" style="fill: #212830"/>
   </g>
   <g id="patch_3">
    <path d="M 460.571338 16.859819 
L 454.747469 17.361495 
L 448.513685 17.210641 
L 446.438078 17.097611 
L 444.963768 16.898273 
L 433.843426 16.122749 
L 425.665365 15.709091 
L 421.073867 15.730061 
L 418.737765 16.081229 
L 407.687667 18.256642 
L 396.951211 20.642123 
L 395.439947 20.73056 
L 310.330649 43.761565 
L 289.966962 49.219372 
L 275.06318 53.246325 
L 272.101826 53.478379 
L 269.492754 54.165346 
L 263.920489 55.745594 
L 259.213816 57.181984 
L 257.792377 57.937475 
L 245.608381 61.226001 
L 237.415861 63.523512 
L 232.98323 64.160519 
L 231.772562 64.548866 
L 229.387815 64.370692 
L 227.007659 63.709085 
L 225.474659 63.200777 
L 220.682033 62.53917 
L 217.971065 62.716674 
L 215.90556 63.128162 
L 215.445662 63.289529 
L 213.242995 64.18512 
L 211.668596 65.536654 
L 205.443227 71.223684 
L 204.303778 72.049926 
L 200.606887 73.372939 
L 190.685023 76.013792 
L 140.229223 89.684403 
L 137.793622 89.888735 
L 136.004394 88.761405 
L 133.156256 86.5426 
L 132.631811 86.348959 
L 128.557287 83.662189 
L 127.145321 83.404001 
L 125.152423 83.444342 
L 123.917969 83.734804 
L 122.497926 84.412548 
L 120.747087 85.614737 
L 111.553887 92.732782 
L 109.345353 94.998561 
L 108.744057 95.76137 
L 106.229272 99.322745 
L 104.239166 101.58766 
L 102.70381 102.96089 
L 101.110321 104.12402 
L 99.305045 105.08573 
L 98.256567 105.5348 
L 93.951635 106.958789 
L 91.36037 107.625479 
L 86.811643 108.661539 
L 84.544234 109.455291 
L 82.256954 110.524238 
L 80.49749 112.121188 
L 78.040491 115.351098 
L 75.426408 120.469444 
L 75.127951 121.682775 
L 75.043169 123.660504 
L 75.113 125.881641 
L 74.907378 127.969608 
L 74.568062 129.911409 
L 73.899734 132.121943 
L 72.865206 134.73601 
L 72.592342 137.703479 
L 72.875179 139.026718 
L 73.339215 140.458516 
L 78.226733 146.861809 
L 78.993221 148.378664 
L 79.49881 149.717515 
L 79.644606 150.562589 
L 79.627057 153.001039 
L 79.109212 154.402516 
L 78.423812 155.851355 
L 77.858146 156.746002 
L 76.978603 157.822436 
L 75.698168 159.032427 
L 72.260521 161.447334 
L 70.263234 162.780722 
L 69.690379 162.893679 
L 65.882104 165.693407 
L 63.792394 167.299015 
L 62.436906 168.670639 
L 57.119843 174.310437 
L 55.538441 176.53731 
L 54.925244 177.707225 
L 54.425005 178.909414 
L 54.021586 180.184218 
L 53.045312 184.533074 
L 52.819397 186.170955 
L 52.779055 187.373144 
L 53.061448 189.075572 
L 53.513286 190.43106 
L 54.521825 192.149625 
L 55.59492 193.537386 
L 61.135153 200.482728 
L 61.533481 201.41812 
L 62.27528 203.788424 
L 62.532597 205.753486 
L 62.59428 208.367496 
L 62.295112 210.692005 
L 61.896591 212.324286 
L 61.28934 214.205711 
L 60.292645 216.239581 
L 58.775362 218.694514 
L 56.684183 221.82018 
L 56.159593 222.894687 
L 55.580397 224.430269 
L 55.390273 225.871064 
L 55.390903 230.00318 
L 54.981771 232.529131 
L 54.640608 233.258311 
L 53.700714 234.485165 
L 52.828571 235.222171 
L 50.341194 236.657165 
L 44.279162 239.450478 
L 43.328021 239.977739 
L 41.985031 241.057191 
L 41.469147 241.562844 
L 40.580939 242.659902 
L 39.814468 244.207619 
L 38.67777 247.140491 
L 38.049848 248.18391 
L 37.055872 249.511611 
L 35.631472 250.896661 
L 33.427941 252.134189 
L 26.418093 254.770782 
L 24.691258 255.920914 
L 23.514315 257.361854 
L 22.921039 258.876983 
L 22.782198 260.369544 
L 23.256708 262.393933 
L 24.195189 266.816454 
L 25.08589 269.896001 
L 25.079 271.033675 
L 24.78853 272.007383 
L 24.229649 273.202811 
L 23.444273 274.290598 
L 22.559422 275.732506 
L 21.931968 276.478024 
L 23.040604 276.913442 
L 26.246244 277.782076 
L 29.876846 278.36985 
L 32.550981 278.633403 
L 55.949872 280.211966 
L 58.523508 280.442044 
L 60.425354 280.758429 
L 63.54108 281.409773 
L 64.826252 281.922817 
L 67.342739 283.244918 
L 72.141166 286.150495 
L 74.737046 287.609419 
L 77.206075 288.769168 
L 89.12684 293.525607 
L 95.529124 295.739345 
L 97.084272 296.33133 
L 103.018581 299.124748 
L 105.877346 300.679501 
L 107.736091 301.493318 
L 109.550629 302.158508 
L 111.775581 302.755092 
L 112.884346 302.854349 
L 113.995806 302.773391 
L 115.581057 302.465114 
L 119.350225 302.103376 
L 123.941779 302.230098 
L 126.205338 302.526038 
L 128.401987 303.02798 
L 130.497821 303.728195 
L 132.460503 304.61587 
L 133.188166 305.033513 
L 133.721236 305.5237 
L 134.467351 306.698472 
L 134.883946 307.725165 
L 136.985848 312.088577 
L 147.942748 325.244781 
L 149.289465 326.633236 
L 154.553446 329.784398 
L 154.938703 329.890909 
L 154.938703 329.890909 
" clip-path="url(#pc0ad6d103d)" style="fill: none; stroke: #ffffff; stroke-width: 0.72; stroke-linejoin: miter"/>
   </g>
  </g>
 </g>
 <defs>
  <clipPath id="pc0ad6d103d">
   <rect x="0" y="0" width="482.503307" height="345.6"/>
  </clipPath>
 </defs>
</svg>
